<svg height="512" viewBox="0 0 192 192" width="512" xmlns="http://www.w3.org/2000/svg" xmlns:xlink="http://www.w3.org/1999/xlink"><linearGradient id="New_Gradient_Swatch_2" gradientUnits="userSpaceOnUse" x1="63.89" x2="116.753" y1="56.11" y2="3.247"><stop offset="0" stop-color="#34cdfa"/><stop offset="1" stop-color="#e8d9f1"/></linearGradient><path d="m133.443 25.922a8 8 0 0 0 -7.487-5.183h-59.912a8 8 0 0 0 -7.487 5.183 40 40 0 1 0 74.886 0z" fill="#e6f9fe"/><path d="m112 75a40.005 40.005 0 0 1 -37.443-54.078c.024-.064.059-.12.085-.183h-8.6a8 8 0 0 0 -7.487 5.183 39.98 39.98 0 0 0 57.081 48.905c-1.197.109-2.409.173-3.636.173z" fill="#ccf2fe"/><path d="m120 80h-48a32.036 32.036 0 0 0 -32 32v72a8 8 0 0 0 8 8h96a8 8 0 0 0 8-8v-72a32.036 32.036 0 0 0 -32-32z" fill="#99e6fd"/><path d="m64 184v-72a32.036 32.036 0 0 1 32-32h-24a32.036 32.036 0 0 0 -32 32v72a8 8 0 0 0 8 8h24a8 8 0 0 1 -8-8z" fill="#67d9fb"/><path d="m131.155 20.422c-6.585-13.169-19.069-20.422-35.155-20.422-14.422 0-22.193 5.181-28.437 9.344-5.579 3.719-9.985 6.656-19.563 6.656a8 8 0 0 0 -7.786 9.838 30.633 30.633 0 0 0 14.656 19.768c9.5 5.713 22.121 7.527 34.328 7.527 19.372 0 37.7-4.573 40.831-5.4a8 8 0 0 0 5.971-7.733 47.4 47.4 0 0 0 -4.845-19.578z" fill="url(#New_Gradient_Swatch_2)"/><g fill="#e6f9fe"><path d="m96 96a24.027 24.027 0 0 0 -24 24h16a8 8 0 1 1 8 8 8 8 0 0 0 -8 8v16h16v-9.371a24 24 0 0 0 -8-46.629z"/><circle cx="96" cy="168" r="8"/></g></svg>